<?xml version="1.0" encoding="UTF-8"?>
<svg width="1202px" height="900px" viewBox="0 0 1202 900" version="1.1" xmlns="http://www.w3.org/2000/svg" xmlns:xlink="http://www.w3.org/1999/xlink">
    <!-- Generator: Sketch 57.1 (83088) - https://sketch.com -->
    <title>Custom Preset Copy</title>
    <desc>Created with Sketch.</desc>
    <g id="Custom-Preset-Copy" stroke="none" stroke-width="1" fill="none" fill-rule="evenodd">
        <rect fill="#000000" x="0" y="0" width="1202" height="900"></rect>
        <g id="Group" transform="translate(321.000000, -18.000000)" fill="#FFFFFF" fill-rule="nonzero">
            <path d="M0,1 L8,1 L8,73 L0,73 L0,1 Z M67.9512195,1 L76,1 L76,73 L62.1726079,73 L29.0487805,8.2 L29.0487805,73 L21,73 L21,1 L34.4146341,1 L67.9512195,66.3142857 L67.9512195,1 Z M108.989362,73 L108.989362,8.71428571 L84,8.71428571 L84,1 L142,1 L142,8.71428571 L117.216312,8.71428571 L117.216312,73 L108.989362,73 Z M204,73 L194.604207,73 L177.051625,43.3771429 L158.260038,43.3771429 L158.260038,73 L150,73 L150,1 L180.25239,1 C195.946463,1 203.070746,6.45142857 203.070746,21.88 C203.070746,32.0628571 198.217973,39.6742857 186.034417,42.2457143 L204,73 Z M159,8 L159,36 L177.778098,36 C185.870317,36 195,33.4729242 195,25.5884477 L195,17.9061372 C194.896254,8.70758123 186.700288,8 179.230548,8 L159,8 Z M244.5,75 C225.550746,75 210,63.5088919 210,37.4487004 C210,12.004104 225.653731,0 244.5,0 C263.655224,0 279,12.004104 279,37.4487004 C279,63.3036936 263.243284,75 244.5,75 Z M244.492049,67 C257.032493,67 269.264565,59.2580645 269.881308,43.4685908 C270.086889,40.7181664 269.984098,32.3650255 269.881308,30.327674 C269.572936,15.6587436 257.752026,7 244.492049,7 C231.232072,7 219.308372,15.6587436 219,30.327674 L219,43.4685908 C219,58.9524618 231.334862,67 244.492049,67 Z M337.293813,0 C355.178456,0 362.373427,11.6792581 362.887354,20.7972753 L354.767315,20.7972753 C354.150603,15.6747937 349.730835,7.58127279 337.499383,7.27392389 C329.173773,6.96657499 318.792457,10.5523121 318.484101,20.1825776 C317.764604,42.619047 360.317721,22.5389191 362.887354,50.9174672 C364.326348,66.3873617 351.786541,74.7882315 336.265959,74.9931308 C317.559034,75.3004797 308,65.2604157 308,51.6346147 L316.017254,51.6346147 C316.017254,63.518772 326.295785,67.8216565 336.779886,67.411858 C347.675129,67.0020595 355.795168,61.1624305 354.561744,51.532165 C351.889326,31.5544867 309.850136,50.6101183 310.055706,19.9776783 C310.055706,10.1425136 319.61474,0 337.293813,0 Z M424.136876,73 L417.334944,52.84 L384.768116,52.84 L377.760064,73 L369,73 L394.455717,1 L407.853462,1 L433,73 L424.136876,73 Z M387,45 L414,45 L400.65283,6 L387,45 Z M487.95122,1 L496,1 L496,73 L482.172608,73 L449.04878,8.2 L449.04878,73 L441,73 L441,1 L454.414634,1 L487.95122,66.3142857 L487.95122,1 Z M535.293813,0 C553.178456,0 560.373427,11.6792581 560.887354,20.7972753 L552.767315,20.7972753 C552.150603,15.6747937 547.730835,7.58127279 535.499383,7.27392389 C527.173773,6.96657499 516.792457,10.5523121 516.484101,20.1825776 C515.764604,42.619047 558.317721,22.5389191 560.887354,50.9174672 C562.326348,66.3873617 549.786541,74.7882315 534.265959,74.9931308 C515.559034,75.3004797 506,65.2604157 506,51.6346147 L514.017254,51.6346147 C514.017254,63.518772 524.295785,67.8216565 534.779886,67.411858 C545.675129,67.0020595 553.795168,61.1624305 552.561744,51.532165 C549.889326,31.5544867 507.850136,50.6101183 508.055706,19.9776783 C508.055706,10.1425136 517.61474,0 535.293813,0 Z" id="INTROSANS"></path>
            <path d="M0,445 L8,445 L8,517 L0,517 L0,445 Z M67.9512195,445 L76,445 L76,517 L62.1726079,517 L29.0487805,452.2 L29.0487805,517 L21,517 L21,445 L34.4146341,445 L67.9512195,510.314286 L67.9512195,445 Z M108.989362,517 L108.989362,452.714286 L84,452.714286 L84,445 L142,445 L142,452.714286 L117.216312,452.714286 L117.216312,517 L108.989362,517 Z M204,517 L194.604207,517 L177.051625,487.377143 L158.260038,487.377143 L158.260038,517 L150,517 L150,445 L180.25239,445 C195.946463,445 203.070746,450.451429 203.070746,465.88 C203.070746,476.062857 198.217973,483.674286 186.034417,486.245714 L204,517 Z M159,452 L159,480 L177.778098,480 C185.870317,480 195,477.472924 195,469.588448 L195,461.906137 C194.896254,452.707581 186.700288,452 179.230548,452 L159,452 Z M244.5,519 C225.550746,519 210,507.508892 210,481.4487 C210,456.004104 225.653731,444 244.5,444 C263.655224,444 279,456.004104 279,481.4487 C279,507.303694 263.243284,519 244.5,519 Z M244.492049,511 C257.032493,511 269.264565,503.258065 269.881308,487.468591 C270.086889,484.718166 269.984098,476.365025 269.881308,474.327674 C269.572936,459.658744 257.752026,451 244.492049,451 C231.232072,451 219.308372,459.658744 219,474.327674 L219,487.468591 C219,502.952462 231.334862,511 244.492049,511 Z M337.293813,444 C355.178456,444 362.373427,455.679258 362.887354,464.797275 L354.767315,464.797275 C354.150603,459.674794 349.730835,451.581273 337.499383,451.273924 C329.173773,450.966575 318.792457,454.552312 318.484101,464.182578 C317.764604,486.619047 360.317721,466.538919 362.887354,494.917467 C364.326348,510.387362 351.786541,518.788232 336.265959,518.993131 C317.559034,519.30048 308,509.260416 308,495.634615 L316.017254,495.634615 C316.017254,507.518772 326.295785,511.821657 336.779886,511.411858 C347.675129,511.002059 355.795168,505.16243 354.561744,495.532165 C351.889326,475.554487 309.850136,494.610118 310.055706,463.977678 C310.055706,454.142514 319.61474,444 337.293813,444 Z M424.136876,517 L417.334944,496.84 L384.768116,496.84 L377.760064,517 L369,517 L394.455717,445 L407.853462,445 L433,517 L424.136876,517 Z M387,489 L414,489 L400.65283,450 L387,489 Z M487.95122,445 L496,445 L496,517 L482.172608,517 L449.04878,452.2 L449.04878,517 L441,517 L441,445 L454.414634,445 L487.95122,510.314286 L487.95122,445 Z M535.293813,444 C553.178456,444 560.373427,455.679258 560.887354,464.797275 L552.767315,464.797275 C552.150603,459.674794 547.730835,451.581273 535.499383,451.273924 C527.173773,450.966575 516.792457,454.552312 516.484101,464.182578 C515.764604,486.619047 558.317721,466.538919 560.887354,494.917467 C562.326348,510.387362 549.786541,518.788232 534.265959,518.993131 C515.559034,519.30048 506,509.260416 506,495.634615 L514.017254,495.634615 C514.017254,507.518772 524.295785,511.821657 534.779886,511.411858 C545.675129,511.002059 553.795168,505.16243 552.561744,495.532165 C549.889326,475.554487 507.850136,494.610118 508.055706,463.977678 C508.055706,454.142514 517.61474,444 535.293813,444 Z" id="INTROSANS-Copy-4"></path>
            <path d="M0,112 L8,112 L8,184 L0,184 L0,112 Z M67.9512195,112 L76,112 L76,184 L62.1726079,184 L29.0487805,119.2 L29.0487805,184 L21,184 L21,112 L34.4146341,112 L67.9512195,177.314286 L67.9512195,112 Z M108.989362,184 L108.989362,119.714286 L84,119.714286 L84,112 L142,112 L142,119.714286 L117.216312,119.714286 L117.216312,184 L108.989362,184 Z M204,184 L194.604207,184 L177.051625,154.377143 L158.260038,154.377143 L158.260038,184 L150,184 L150,112 L180.25239,112 C195.946463,112 203.070746,117.451429 203.070746,132.88 C203.070746,143.062857 198.217973,150.674286 186.034417,153.245714 L204,184 Z M159,119 L159,147 L177.778098,147 C185.870317,147 195,144.472924 195,136.588448 L195,128.906137 C194.896254,119.707581 186.700288,119 179.230548,119 L159,119 Z M244.5,186 C225.550746,186 210,174.508892 210,148.4487 C210,123.004104 225.653731,111 244.5,111 C263.655224,111 279,123.004104 279,148.4487 C279,174.303694 263.243284,186 244.5,186 Z M244.492049,178 C257.032493,178 269.264565,170.258065 269.881308,154.468591 C270.086889,151.718166 269.984098,143.365025 269.881308,141.327674 C269.572936,126.658744 257.752026,118 244.492049,118 C231.232072,118 219.308372,126.658744 219,141.327674 L219,154.468591 C219,169.952462 231.334862,178 244.492049,178 Z M337.293813,111 C355.178456,111 362.373427,122.679258 362.887354,131.797275 L354.767315,131.797275 C354.150603,126.674794 349.730835,118.581273 337.499383,118.273924 C329.173773,117.966575 318.792457,121.552312 318.484101,131.182578 C317.764604,153.619047 360.317721,133.538919 362.887354,161.917467 C364.326348,177.387362 351.786541,185.788232 336.265959,185.993131 C317.559034,186.30048 308,176.260416 308,162.634615 L316.017254,162.634615 C316.017254,174.518772 326.295785,178.821657 336.779886,178.411858 C347.675129,178.002059 355.795168,172.16243 354.561744,162.532165 C351.889326,142.554487 309.850136,161.610118 310.055706,130.977678 C310.055706,121.142514 319.61474,111 337.293813,111 Z M424.136876,184 L417.334944,163.84 L384.768116,163.84 L377.760064,184 L369,184 L394.455717,112 L407.853462,112 L433,184 L424.136876,184 Z M387,156 L414,156 L400.65283,117 L387,156 Z M487.95122,112 L496,112 L496,184 L482.172608,184 L449.04878,119.2 L449.04878,184 L441,184 L441,112 L454.414634,112 L487.95122,177.314286 L487.95122,112 Z M535.293813,111 C553.178456,111 560.373427,122.679258 560.887354,131.797275 L552.767315,131.797275 C552.150603,126.674794 547.730835,118.581273 535.499383,118.273924 C527.173773,117.966575 516.792457,121.552312 516.484101,131.182578 C515.764604,153.619047 558.317721,133.538919 560.887354,161.917467 C562.326348,177.387362 549.786541,185.788232 534.265959,185.993131 C515.559034,186.30048 506,176.260416 506,162.634615 L514.017254,162.634615 C514.017254,174.518772 524.295785,178.821657 534.779886,178.411858 C545.675129,178.002059 553.795168,172.16243 552.561744,162.532165 C549.889326,142.554487 507.850136,161.610118 508.055706,130.977678 C508.055706,121.142514 517.61474,111 535.293813,111 Z" id="INTROSANS-Copy"></path>
            <path d="M0,556 L8,556 L8,628 L0,628 L0,556 Z M67.9512195,556 L76,556 L76,628 L62.1726079,628 L29.0487805,563.2 L29.0487805,628 L21,628 L21,556 L34.4146341,556 L67.9512195,621.314286 L67.9512195,556 Z M108.989362,628 L108.989362,563.714286 L84,563.714286 L84,556 L142,556 L142,563.714286 L117.216312,563.714286 L117.216312,628 L108.989362,628 Z M204,628 L194.604207,628 L177.051625,598.377143 L158.260038,598.377143 L158.260038,628 L150,628 L150,556 L180.25239,556 C195.946463,556 203.070746,561.451429 203.070746,576.88 C203.070746,587.062857 198.217973,594.674286 186.034417,597.245714 L204,628 Z M159,563 L159,591 L177.778098,591 C185.870317,591 195,588.472924 195,580.588448 L195,572.906137 C194.896254,563.707581 186.700288,563 179.230548,563 L159,563 Z M244.5,630 C225.550746,630 210,618.508892 210,592.4487 C210,567.004104 225.653731,555 244.5,555 C263.655224,555 279,567.004104 279,592.4487 C279,618.303694 263.243284,630 244.5,630 Z M244.492049,622 C257.032493,622 269.264565,614.258065 269.881308,598.468591 C270.086889,595.718166 269.984098,587.365025 269.881308,585.327674 C269.572936,570.658744 257.752026,562 244.492049,562 C231.232072,562 219.308372,570.658744 219,585.327674 L219,598.468591 C219,613.952462 231.334862,622 244.492049,622 Z M337.293813,555 C355.178456,555 362.373427,566.679258 362.887354,575.797275 L354.767315,575.797275 C354.150603,570.674794 349.730835,562.581273 337.499383,562.273924 C329.173773,561.966575 318.792457,565.552312 318.484101,575.182578 C317.764604,597.619047 360.317721,577.538919 362.887354,605.917467 C364.326348,621.387362 351.786541,629.788232 336.265959,629.993131 C317.559034,630.30048 308,620.260416 308,606.634615 L316.017254,606.634615 C316.017254,618.518772 326.295785,622.821657 336.779886,622.411858 C347.675129,622.002059 355.795168,616.16243 354.561744,606.532165 C351.889326,586.554487 309.850136,605.610118 310.055706,574.977678 C310.055706,565.142514 319.61474,555 337.293813,555 Z M424.136876,628 L417.334944,607.84 L384.768116,607.84 L377.760064,628 L369,628 L394.455717,556 L407.853462,556 L433,628 L424.136876,628 Z M387,600 L414,600 L400.65283,561 L387,600 Z M487.95122,556 L496,556 L496,628 L482.172608,628 L449.04878,563.2 L449.04878,628 L441,628 L441,556 L454.414634,556 L487.95122,621.314286 L487.95122,556 Z M535.293813,555 C553.178456,555 560.373427,566.679258 560.887354,575.797275 L552.767315,575.797275 C552.150603,570.674794 547.730835,562.581273 535.499383,562.273924 C527.173773,561.966575 516.792457,565.552312 516.484101,575.182578 C515.764604,597.619047 558.317721,577.538919 560.887354,605.917467 C562.326348,621.387362 549.786541,629.788232 534.265959,629.993131 C515.559034,630.30048 506,620.260416 506,606.634615 L514.017254,606.634615 C514.017254,618.518772 524.295785,622.821657 534.779886,622.411858 C545.675129,622.002059 553.795168,616.16243 552.561744,606.532165 C549.889326,586.554487 507.850136,605.610118 508.055706,574.977678 C508.055706,565.142514 517.61474,555 535.293813,555 Z" id="INTROSANS-Copy-5"></path>
            <path d="M0,223 L8,223 L8,295 L0,295 L0,223 Z M67.9512195,223 L76,223 L76,295 L62.1726079,295 L29.0487805,230.2 L29.0487805,295 L21,295 L21,223 L34.4146341,223 L67.9512195,288.314286 L67.9512195,223 Z M108.989362,295 L108.989362,230.714286 L84,230.714286 L84,223 L142,223 L142,230.714286 L117.216312,230.714286 L117.216312,295 L108.989362,295 Z M204,295 L194.604207,295 L177.051625,265.377143 L158.260038,265.377143 L158.260038,295 L150,295 L150,223 L180.25239,223 C195.946463,223 203.070746,228.451429 203.070746,243.88 C203.070746,254.062857 198.217973,261.674286 186.034417,264.245714 L204,295 Z M159,230 L159,258 L177.778098,258 C185.870317,258 195,255.472924 195,247.588448 L195,239.906137 C194.896254,230.707581 186.700288,230 179.230548,230 L159,230 Z M244.5,297 C225.550746,297 210,285.508892 210,259.4487 C210,234.004104 225.653731,222 244.5,222 C263.655224,222 279,234.004104 279,259.4487 C279,285.303694 263.243284,297 244.5,297 Z M244.492049,289 C257.032493,289 269.264565,281.258065 269.881308,265.468591 C270.086889,262.718166 269.984098,254.365025 269.881308,252.327674 C269.572936,237.658744 257.752026,229 244.492049,229 C231.232072,229 219.308372,237.658744 219,252.327674 L219,265.468591 C219,280.952462 231.334862,289 244.492049,289 Z M337.293813,222 C355.178456,222 362.373427,233.679258 362.887354,242.797275 L354.767315,242.797275 C354.150603,237.674794 349.730835,229.581273 337.499383,229.273924 C329.173773,228.966575 318.792457,232.552312 318.484101,242.182578 C317.764604,264.619047 360.317721,244.538919 362.887354,272.917467 C364.326348,288.387362 351.786541,296.788232 336.265959,296.993131 C317.559034,297.30048 308,287.260416 308,273.634615 L316.017254,273.634615 C316.017254,285.518772 326.295785,289.821657 336.779886,289.411858 C347.675129,289.002059 355.795168,283.16243 354.561744,273.532165 C351.889326,253.554487 309.850136,272.610118 310.055706,241.977678 C310.055706,232.142514 319.61474,222 337.293813,222 Z M424.136876,295 L417.334944,274.84 L384.768116,274.84 L377.760064,295 L369,295 L394.455717,223 L407.853462,223 L433,295 L424.136876,295 Z M387,267 L414,267 L400.65283,228 L387,267 Z M487.95122,223 L496,223 L496,295 L482.172608,295 L449.04878,230.2 L449.04878,295 L441,295 L441,223 L454.414634,223 L487.95122,288.314286 L487.95122,223 Z M535.293813,222 C553.178456,222 560.373427,233.679258 560.887354,242.797275 L552.767315,242.797275 C552.150603,237.674794 547.730835,229.581273 535.499383,229.273924 C527.173773,228.966575 516.792457,232.552312 516.484101,242.182578 C515.764604,264.619047 558.317721,244.538919 560.887354,272.917467 C562.326348,288.387362 549.786541,296.788232 534.265959,296.993131 C515.559034,297.30048 506,287.260416 506,273.634615 L514.017254,273.634615 C514.017254,285.518772 524.295785,289.821657 534.779886,289.411858 C545.675129,289.002059 553.795168,283.16243 552.561744,273.532165 C549.889326,253.554487 507.850136,272.610118 508.055706,241.977678 C508.055706,232.142514 517.61474,222 535.293813,222 Z" id="INTROSANS-Copy-2"></path>
            <path d="M0,667 L8,667 L8,739 L0,739 L0,667 Z M67.9512195,667 L76,667 L76,739 L62.1726079,739 L29.0487805,674.2 L29.0487805,739 L21,739 L21,667 L34.4146341,667 L67.9512195,732.314286 L67.9512195,667 Z M108.989362,739 L108.989362,674.714286 L84,674.714286 L84,667 L142,667 L142,674.714286 L117.216312,674.714286 L117.216312,739 L108.989362,739 Z M204,739 L194.604207,739 L177.051625,709.377143 L158.260038,709.377143 L158.260038,739 L150,739 L150,667 L180.25239,667 C195.946463,667 203.070746,672.451429 203.070746,687.88 C203.070746,698.062857 198.217973,705.674286 186.034417,708.245714 L204,739 Z M159,674 L159,702 L177.778098,702 C185.870317,702 195,699.472924 195,691.588448 L195,683.906137 C194.896254,674.707581 186.700288,674 179.230548,674 L159,674 Z M244.5,741 C225.550746,741 210,729.508892 210,703.4487 C210,678.004104 225.653731,666 244.5,666 C263.655224,666 279,678.004104 279,703.4487 C279,729.303694 263.243284,741 244.5,741 Z M244.492049,733 C257.032493,733 269.264565,725.258065 269.881308,709.468591 C270.086889,706.718166 269.984098,698.365025 269.881308,696.327674 C269.572936,681.658744 257.752026,673 244.492049,673 C231.232072,673 219.308372,681.658744 219,696.327674 L219,709.468591 C219,724.952462 231.334862,733 244.492049,733 Z M337.293813,666 C355.178456,666 362.373427,677.679258 362.887354,686.797275 L354.767315,686.797275 C354.150603,681.674794 349.730835,673.581273 337.499383,673.273924 C329.173773,672.966575 318.792457,676.552312 318.484101,686.182578 C317.764604,708.619047 360.317721,688.538919 362.887354,716.917467 C364.326348,732.387362 351.786541,740.788232 336.265959,740.993131 C317.559034,741.30048 308,731.260416 308,717.634615 L316.017254,717.634615 C316.017254,729.518772 326.295785,733.821657 336.779886,733.411858 C347.675129,733.002059 355.795168,727.16243 354.561744,717.532165 C351.889326,697.554487 309.850136,716.610118 310.055706,685.977678 C310.055706,676.142514 319.61474,666 337.293813,666 Z M424.136876,739 L417.334944,718.84 L384.768116,718.84 L377.760064,739 L369,739 L394.455717,667 L407.853462,667 L433,739 L424.136876,739 Z M387,711 L414,711 L400.65283,672 L387,711 Z M487.95122,667 L496,667 L496,739 L482.172608,739 L449.04878,674.2 L449.04878,739 L441,739 L441,667 L454.414634,667 L487.95122,732.314286 L487.95122,667 Z M535.293813,666 C553.178456,666 560.373427,677.679258 560.887354,686.797275 L552.767315,686.797275 C552.150603,681.674794 547.730835,673.581273 535.499383,673.273924 C527.173773,672.966575 516.792457,676.552312 516.484101,686.182578 C515.764604,708.619047 558.317721,688.538919 560.887354,716.917467 C562.326348,732.387362 549.786541,740.788232 534.265959,740.993131 C515.559034,741.30048 506,731.260416 506,717.634615 L514.017254,717.634615 C514.017254,729.518772 524.295785,733.821657 534.779886,733.411858 C545.675129,733.002059 553.795168,727.16243 552.561744,717.532165 C549.889326,697.554487 507.850136,716.610118 508.055706,685.977678 C508.055706,676.142514 517.61474,666 535.293813,666 Z" id="INTROSANS-Copy-6"></path>
            <path d="M0,334 L8,334 L8,406 L0,406 L0,334 Z M67.9512195,334 L76,334 L76,406 L62.1726079,406 L29.0487805,341.2 L29.0487805,406 L21,406 L21,334 L34.4146341,334 L67.9512195,399.314286 L67.9512195,334 Z M108.989362,406 L108.989362,341.714286 L84,341.714286 L84,334 L142,334 L142,341.714286 L117.216312,341.714286 L117.216312,406 L108.989362,406 Z M204,406 L194.604207,406 L177.051625,376.377143 L158.260038,376.377143 L158.260038,406 L150,406 L150,334 L180.25239,334 C195.946463,334 203.070746,339.451429 203.070746,354.88 C203.070746,365.062857 198.217973,372.674286 186.034417,375.245714 L204,406 Z M159,341 L159,369 L177.778098,369 C185.870317,369 195,366.472924 195,358.588448 L195,350.906137 C194.896254,341.707581 186.700288,341 179.230548,341 L159,341 Z M244.5,408 C225.550746,408 210,396.508892 210,370.4487 C210,345.004104 225.653731,333 244.5,333 C263.655224,333 279,345.004104 279,370.4487 C279,396.303694 263.243284,408 244.5,408 Z M244.492049,400 C257.032493,400 269.264565,392.258065 269.881308,376.468591 C270.086889,373.718166 269.984098,365.365025 269.881308,363.327674 C269.572936,348.658744 257.752026,340 244.492049,340 C231.232072,340 219.308372,348.658744 219,363.327674 L219,376.468591 C219,391.952462 231.334862,400 244.492049,400 Z M337.293813,333 C355.178456,333 362.373427,344.679258 362.887354,353.797275 L354.767315,353.797275 C354.150603,348.674794 349.730835,340.581273 337.499383,340.273924 C329.173773,339.966575 318.792457,343.552312 318.484101,353.182578 C317.764604,375.619047 360.317721,355.538919 362.887354,383.917467 C364.326348,399.387362 351.786541,407.788232 336.265959,407.993131 C317.559034,408.30048 308,398.260416 308,384.634615 L316.017254,384.634615 C316.017254,396.518772 326.295785,400.821657 336.779886,400.411858 C347.675129,400.002059 355.795168,394.16243 354.561744,384.532165 C351.889326,364.554487 309.850136,383.610118 310.055706,352.977678 C310.055706,343.142514 319.61474,333 337.293813,333 Z M424.136876,406 L417.334944,385.84 L384.768116,385.84 L377.760064,406 L369,406 L394.455717,334 L407.853462,334 L433,406 L424.136876,406 Z M387,378 L414,378 L400.65283,339 L387,378 Z M487.95122,334 L496,334 L496,406 L482.172608,406 L449.04878,341.2 L449.04878,406 L441,406 L441,334 L454.414634,334 L487.95122,399.314286 L487.95122,334 Z M535.293813,333 C553.178456,333 560.373427,344.679258 560.887354,353.797275 L552.767315,353.797275 C552.150603,348.674794 547.730835,340.581273 535.499383,340.273924 C527.173773,339.966575 516.792457,343.552312 516.484101,353.182578 C515.764604,375.619047 558.317721,355.538919 560.887354,383.917467 C562.326348,399.387362 549.786541,407.788232 534.265959,407.993131 C515.559034,408.30048 506,398.260416 506,384.634615 L514.017254,384.634615 C514.017254,396.518772 524.295785,400.821657 534.779886,400.411858 C545.675129,400.002059 553.795168,394.16243 552.561744,384.532165 C549.889326,364.554487 507.850136,383.610118 508.055706,352.977678 C508.055706,343.142514 517.61474,333 535.293813,333 Z" id="INTROSANS-Copy-3"></path>
            <path d="M0,778 L8,778 L8,850 L0,850 L0,778 Z M67.9512195,778 L76,778 L76,850 L62.1726079,850 L29.0487805,785.2 L29.0487805,850 L21,850 L21,778 L34.4146341,778 L67.9512195,843.314286 L67.9512195,778 Z M108.989362,850 L108.989362,785.714286 L84,785.714286 L84,778 L142,778 L142,785.714286 L117.216312,785.714286 L117.216312,850 L108.989362,850 Z M204,850 L194.604207,850 L177.051625,820.377143 L158.260038,820.377143 L158.260038,850 L150,850 L150,778 L180.25239,778 C195.946463,778 203.070746,783.451429 203.070746,798.88 C203.070746,809.062857 198.217973,816.674286 186.034417,819.245714 L204,850 Z M159,785 L159,813 L177.778098,813 C185.870317,813 195,810.472924 195,802.588448 L195,794.906137 C194.896254,785.707581 186.700288,785 179.230548,785 L159,785 Z M244.5,852 C225.550746,852 210,840.508892 210,814.4487 C210,789.004104 225.653731,777 244.5,777 C263.655224,777 279,789.004104 279,814.4487 C279,840.303694 263.243284,852 244.5,852 Z M244.492049,844 C257.032493,844 269.264565,836.258065 269.881308,820.468591 C270.086889,817.718166 269.984098,809.365025 269.881308,807.327674 C269.572936,792.658744 257.752026,784 244.492049,784 C231.232072,784 219.308372,792.658744 219,807.327674 L219,820.468591 C219,835.952462 231.334862,844 244.492049,844 Z M337.293813,777 C355.178456,777 362.373427,788.679258 362.887354,797.797275 L354.767315,797.797275 C354.150603,792.674794 349.730835,784.581273 337.499383,784.273924 C329.173773,783.966575 318.792457,787.552312 318.484101,797.182578 C317.764604,819.619047 360.317721,799.538919 362.887354,827.917467 C364.326348,843.387362 351.786541,851.788232 336.265959,851.993131 C317.559034,852.30048 308,842.260416 308,828.634615 L316.017254,828.634615 C316.017254,840.518772 326.295785,844.821657 336.779886,844.411858 C347.675129,844.002059 355.795168,838.16243 354.561744,828.532165 C351.889326,808.554487 309.850136,827.610118 310.055706,796.977678 C310.055706,787.142514 319.61474,777 337.293813,777 Z M424.136876,850 L417.334944,829.84 L384.768116,829.84 L377.760064,850 L369,850 L394.455717,778 L407.853462,778 L433,850 L424.136876,850 Z M387,822 L414,822 L400.65283,783 L387,822 Z M487.95122,778 L496,778 L496,850 L482.172608,850 L449.04878,785.2 L449.04878,850 L441,850 L441,778 L454.414634,778 L487.95122,843.314286 L487.95122,778 Z M535.293813,777 C553.178456,777 560.373427,788.679258 560.887354,797.797275 L552.767315,797.797275 C552.150603,792.674794 547.730835,784.581273 535.499383,784.273924 C527.173773,783.966575 516.792457,787.552312 516.484101,797.182578 C515.764604,819.619047 558.317721,799.538919 560.887354,827.917467 C562.326348,843.387362 549.786541,851.788232 534.265959,851.993131 C515.559034,852.30048 506,842.260416 506,828.634615 L514.017254,828.634615 C514.017254,840.518772 524.295785,844.821657 534.779886,844.411858 C545.675129,844.002059 553.795168,838.16243 552.561744,828.532165 C549.889326,808.554487 507.850136,827.610118 508.055706,796.977678 C508.055706,787.142514 517.61474,777 535.293813,777 Z" id="INTROSANS-Copy-7"></path>
            <path d="M0,889 L8,889 L8,961 L0,961 L0,889 Z M67.9512195,889 L76,889 L76,961 L62.1726079,961 L29.0487805,896.2 L29.0487805,961 L21,961 L21,889 L34.4146341,889 L67.9512195,954.314286 L67.9512195,889 Z M108.989362,961 L108.989362,896.714286 L84,896.714286 L84,889 L142,889 L142,896.714286 L117.216312,896.714286 L117.216312,961 L108.989362,961 Z M204,961 L194.604207,961 L177.051625,931.377143 L158.260038,931.377143 L158.260038,961 L150,961 L150,889 L180.25239,889 C195.946463,889 203.070746,894.451429 203.070746,909.88 C203.070746,920.062857 198.217973,927.674286 186.034417,930.245714 L204,961 Z M159,896 L159,924 L177.778098,924 C185.870317,924 195,921.472924 195,913.588448 L195,905.906137 C194.896254,896.707581 186.700288,896 179.230548,896 L159,896 Z M244.5,963 C225.550746,963 210,951.508892 210,925.4487 C210,900.004104 225.653731,888 244.5,888 C263.655224,888 279,900.004104 279,925.4487 C279,951.303694 263.243284,963 244.5,963 Z M244.492049,955 C257.032493,955 269.264565,947.258065 269.881308,931.468591 C270.086889,928.718166 269.984098,920.365025 269.881308,918.327674 C269.572936,903.658744 257.752026,895 244.492049,895 C231.232072,895 219.308372,903.658744 219,918.327674 L219,931.468591 C219,946.952462 231.334862,955 244.492049,955 Z M337.293813,888 C355.178456,888 362.373427,899.679258 362.887354,908.797275 L354.767315,908.797275 C354.150603,903.674794 349.730835,895.581273 337.499383,895.273924 C329.173773,894.966575 318.792457,898.552312 318.484101,908.182578 C317.764604,930.619047 360.317721,910.538919 362.887354,938.917467 C364.326348,954.387362 351.786541,962.788232 336.265959,962.993131 C317.559034,963.30048 308,953.260416 308,939.634615 L316.017254,939.634615 C316.017254,951.518772 326.295785,955.821657 336.779886,955.411858 C347.675129,955.002059 355.795168,949.16243 354.561744,939.532165 C351.889326,919.554487 309.850136,938.610118 310.055706,907.977678 C310.055706,898.142514 319.61474,888 337.293813,888 Z M424.136876,961 L417.334944,940.84 L384.768116,940.84 L377.760064,961 L369,961 L394.455717,889 L407.853462,889 L433,961 L424.136876,961 Z M387,933 L414,933 L400.65283,894 L387,933 Z M487.95122,889 L496,889 L496,961 L482.172608,961 L449.04878,896.2 L449.04878,961 L441,961 L441,889 L454.414634,889 L487.95122,954.314286 L487.95122,889 Z M535.293813,888 C553.178456,888 560.373427,899.679258 560.887354,908.797275 L552.767315,908.797275 C552.150603,903.674794 547.730835,895.581273 535.499383,895.273924 C527.173773,894.966575 516.792457,898.552312 516.484101,908.182578 C515.764604,930.619047 558.317721,910.538919 560.887354,938.917467 C562.326348,954.387362 549.786541,962.788232 534.265959,962.993131 C515.559034,963.30048 506,953.260416 506,939.634615 L514.017254,939.634615 C514.017254,951.518772 524.295785,955.821657 534.779886,955.411858 C545.675129,955.002059 553.795168,949.16243 552.561744,939.532165 C549.889326,919.554487 507.850136,938.610118 508.055706,907.977678 C508.055706,898.142514 517.61474,888 535.293813,888 Z" id="INTROSANS-Copy-8"></path>
        </g>
    </g>
</svg>